<svg xmlns="http://www.w3.org/2000/svg" viewBox="0 0 99.812 91.508" xmlns:bx="https://boxy-svg.com">
  <path d="M 66.44 42.799 C 70.035 42.799 71.834 43.785 71.834 45.752 C 71.834 47.006 71.234 49.265 70.036 52.531 C 68.838 55.799 67.839 58.132 67.04 59.535 C 66.241 60.936 65.455 61.638 64.68 61.638 C 63.906 61.638 62.983 61.258 61.909 60.497 C 60.835 59.736 59.743 58.901 58.632 57.99 C 57.52 57.081 56.103 56.208 54.381 55.372 C 52.658 54.538 50.959 54.061 49.287 53.941 C 46.79 64.621 45.398 70.527 45.112 71.66 C 44.824 72.792 44.393 73.942 43.819 75.106 C 43.244 76.27 42.557 77.224 41.76 77.969 C 40.959 78.715 40.142 79.327 39.306 79.803 C 38.469 80.282 37.451 80.639 36.253 80.877 C 30.586 81.922 25.092 81.668 19.774 80.117 C 16.803 79.252 14.43 78.186 12.658 76.919 C 10.885 75.651 10 74.42 10 73.227 C 10.074 72.541 10.342 71.996 10.805 71.593 C 11.267 71.191 11.81 70.989 12.434 70.989 C 14.731 70.989 16.422 70.55 17.509 69.669 C 18.594 68.789 19.625 67.164 20.599 64.792 C 21.573 62.421 22.49 59.772 23.351 56.849 C 24.212 53.926 25.005 51.24 25.73 48.794 C 26.454 46.349 27.289 43.858 28.24 41.322 C 30.311 35.864 32.958 32.211 36.179 30.36 C 39.399 28.511 44.281 27.586 50.823 27.586 C 54.718 27.586 56.666 28.361 56.666 29.912 C 56.666 30.509 56.428 31.359 55.954 32.462 C 54.081 36.669 52.357 41.816 50.786 47.9 C 52.907 46.558 55.386 45.372 58.221 44.342 C 61.053 43.314 63.794 42.799 66.44 42.799 Z M 77.864 33.492 C 74.243 29.704 69.83 26.638 64.624 24.296 C 59.418 21.956 54.168 20.784 48.875 20.784 C 45.703 20.784 41.884 21.284 37.415 22.283 C 32.945 23.283 29.637 24.356 27.49 25.504 C 25.343 26.653 23.932 27.227 23.257 27.227 C 22.433 27.227 22.021 26.757 22.021 25.819 C 22.021 24.88 22.708 23.739 24.082 22.394 C 25.456 21.054 27.458 19.666 30.093 18.233 C 32.727 16.801 35.704 15.459 39.026 14.206 C 46.615 11.403 54.93 10 63.97 10 C 69.861 10 74.792 10.3 78.763 10.895 C 86.129 11.94 89.812 13.609 89.812 15.906 C 89.737 17.129 89.237 19.158 88.314 21.992 C 87.389 24.827 86.291 27.534 85.018 30.114 C 83.745 32.695 82.695 34.133 81.872 34.431 C 81.346 34.611 80.753 34.7 80.092 34.7 C 79.43 34.7 78.687 34.299 77.864 33.492 Z" id="path-30" vector-effect="non-scaling-stroke" stroke-linecap="round" fill-rule="evenodd" font-size="9pt" stroke-width="0.25mm" fill="#7B60ED" style="stroke-width: 0.945; fill: rgb(123, 96, 237);">
    <bx:title>1F</bx:title>
  </path>
</svg>