<svg xmlns="http://www.w3.org/2000/svg" viewBox="0 0 122.778 122.778" xmlns:bx="https://boxy-svg.com">
  <ellipse style="fill: rgb(40, 84, 48);" cx="61.389" cy="61.389" rx="61.389" ry="61.389"></ellipse>
  <path d="M 77.923 58.434 C 81.518 58.434 83.317 59.42 83.317 61.387 C 83.317 62.641 82.717 64.9 81.519 68.166 C 80.321 71.434 79.322 73.767 78.523 75.17 C 77.724 76.571 76.938 77.273 76.163 77.273 C 75.389 77.273 74.466 76.893 73.392 76.132 C 72.318 75.371 71.226 74.536 70.115 73.625 C 69.003 72.716 67.586 71.843 65.864 71.007 C 64.141 70.173 62.442 69.696 60.77 69.576 C 58.273 80.256 56.881 86.162 56.595 87.295 C 56.307 88.427 55.876 89.577 55.302 90.741 C 54.727 91.905 54.04 92.859 53.243 93.604 C 52.442 94.35 51.625 94.962 50.789 95.438 C 49.952 95.917 48.934 96.274 47.736 96.512 C 42.069 97.557 36.575 97.303 31.257 95.752 C 28.286 94.887 25.913 93.821 24.141 92.554 C 22.368 91.286 21.483 90.055 21.483 88.862 C 21.557 88.176 21.825 87.631 22.288 87.228 C 22.75 86.826 23.293 86.624 23.917 86.624 C 26.214 86.624 27.905 86.185 28.992 85.304 C 30.077 84.424 31.108 82.799 32.082 80.427 C 33.056 78.056 33.973 75.407 34.834 72.484 C 35.695 69.561 36.488 66.875 37.213 64.429 C 37.937 61.984 38.772 59.493 39.723 56.957 C 41.794 51.499 44.441 47.846 47.662 45.995 C 50.882 44.146 55.764 43.221 62.306 43.221 C 66.201 43.221 68.149 43.996 68.149 45.547 C 68.149 46.144 67.911 46.994 67.437 48.097 C 65.564 52.304 63.84 57.451 62.269 63.535 C 64.39 62.193 66.869 61.007 69.704 59.977 C 72.536 58.949 75.277 58.434 77.923 58.434 Z M 89.347 49.127 C 85.726 45.339 81.313 42.273 76.107 39.931 C 70.901 37.591 65.651 36.419 60.358 36.419 C 57.186 36.419 53.367 36.919 48.898 37.918 C 44.428 38.918 41.12 39.991 38.973 41.139 C 36.826 42.288 35.415 42.862 34.74 42.862 C 33.916 42.862 33.504 42.392 33.504 41.454 C 33.504 40.515 34.191 39.374 35.565 38.029 C 36.939 36.689 38.941 35.301 41.576 33.868 C 44.21 32.436 47.187 31.094 50.509 29.841 C 58.098 27.038 66.413 25.635 75.453 25.635 C 81.344 25.635 86.275 25.935 90.246 26.53 C 97.612 27.575 101.295 29.244 101.295 31.541 C 101.22 32.764 100.72 34.793 99.797 37.627 C 98.872 40.462 97.774 43.169 96.501 45.749 C 95.228 48.33 94.178 49.768 93.355 50.066 C 92.829 50.246 92.236 50.335 91.575 50.335 C 90.913 50.335 90.17 49.934 89.347 49.127 Z" id="path-30" vector-effect="non-scaling-stroke" stroke-linecap="round" fill-rule="evenodd" font-size="9pt" stroke-width="0.25mm" style="stroke-width: 0.945; fill: rgb(242, 242, 242);">
    <bx:title>1F</bx:title>
  </path>
</svg>