<svg xmlns="http://www.w3.org/2000/svg" viewBox="0 0 172.664 76.508" width="168.664px" height="71.5076px" xmlns:bx="https://boxy-svg.com">
  <defs>
    <filter id="drop-shadow-filter-0" bx:preset="drop-shadow 1 1 1 1 0.2 #000" color-interpolation-filters="sRGB" x="-50%" y="-50%" width="200%" height="200%">
      <title>Drop shadow</title>
      <feGaussianBlur in="SourceAlpha" stdDeviation="1"></feGaussianBlur>
      <feOffset dx="1" dy="1"></feOffset>
      <feComponentTransfer result="offsetblur">
        <feFuncA id="spread-ctrl" type="linear" slope="0.4"></feFuncA>
      </feComponentTransfer>
      <feFlood flood-color="#000"></feFlood>
      <feComposite in2="offsetblur" operator="in"></feComposite>
      <feMerge>
        <feMergeNode></feMergeNode>
        <feMergeNode in="SourceGraphic"></feMergeNode>
      </feMerge>
    </filter>
    <linearGradient id="gradient-11" bx:pinned="true">
      <stop offset="0" style="stop-color: rgb(40, 84, 48);"></stop>
    </linearGradient>
    <linearGradient bx:pinned="true" id="color-0">
      <stop style="stop-color: rgba(56, 94, 1, 0.376);" offset="0"></stop>
      <stop style="stop-color: rgb(40, 84, 48);" offset="0.263"></stop>
    </linearGradient>
    <linearGradient id="color-0-1" href="#color-0" gradientUnits="userSpaceOnUse" x1="434.189" y1="149.715" x2="434.189" y2="158.047"></linearGradient>
    <linearGradient id="color-0-2" href="#color-0" gradientUnits="userSpaceOnUse" x1="434.387" y1="163.089" x2="434.387" y2="169.158"></linearGradient>
    <linearGradient id="color-0-3" href="#color-0" gradientUnits="userSpaceOnUse" x1="426.017" y1="156.807" x2="426.017" y2="184.651"></linearGradient>
    <linearGradient id="color-0-4" href="#color-0" gradientUnits="userSpaceOnUse" x1="545.728" y1="66.013" x2="545.728" y2="105.713"></linearGradient>
    <linearGradient id="color-0-5" href="#color-0" gradientUnits="userSpaceOnUse" x1="564.328" y1="69.353" x2="564.328" y2="105.713"></linearGradient>
    <linearGradient id="color-0-6" href="#color-0" gradientUnits="userSpaceOnUse" x1="405.262" y1="60.953" x2="405.262" y2="105.713"></linearGradient>
    <linearGradient id="color-0-7" href="#color-0" gradientUnits="userSpaceOnUse" x1="427.792" y1="78.413" x2="427.792" y2="105.713"></linearGradient>
    <linearGradient id="color-0-8" href="#color-0" gradientUnits="userSpaceOnUse" x1="454.012" y1="78.413" x2="454.012" y2="105.713"></linearGradient>
    <linearGradient id="color-0-9" href="#color-0" gradientUnits="userSpaceOnUse" x1="480.352" y1="77.993" x2="480.352" y2="105.713"></linearGradient>
    <linearGradient id="color-0-10" href="#color-0" gradientUnits="userSpaceOnUse" x1="502.762" y1="78.413" x2="502.762" y2="105.173"></linearGradient>
    <linearGradient id="gradient-0" x1="331.36" x2="331.36" y1="121.848" y2="193.356" gradientUnits="userSpaceOnUse" gradientTransform="matrix(0.936212, 0.351436, -0.469456, 1.250612, 86.920992, -163.899714)">
      <stop style="stop-color: rgba(56, 94, 1, 0.376);" offset="0"></stop>
      <stop style="stop-color: rgb(40, 84, 48);" offset="0.263"></stop>
    </linearGradient>
  </defs>
  <g style="filter: url(#drop-shadow-filter-0);" transform="matrix(1, 0, 0, 1, -289.45401, -119.848)">
    <bx:title>logo</bx:title>
    <g transform="matrix(0.624153, 0, -0.147283, 0.624153, 113.921562, 118.799782)" style="">
      <bx:title>lavor</bx:title>
      <path d="M 403.732 65.213 L 403.372 62.573 C 406.492 61.493 409.412 60.953 412.132 60.953 C 412.532 61.513 412.732 62.493 412.732 63.893 C 412.732 67.093 411.722 73.283 409.702 82.463 C 407.682 91.643 406.672 96.983 406.672 98.483 C 406.672 99.983 406.852 100.733 407.212 100.733 L 411.412 99.233 L 412.492 101.333 C 411.132 102.413 409.482 103.413 407.542 104.333 C 405.602 105.253 403.942 105.713 402.562 105.713 C 401.182 105.713 400.042 105.253 399.142 104.333 C 398.242 103.413 397.792 102.123 397.792 100.463 C 397.792 98.803 398.782 93.503 400.762 84.563 C 402.742 75.623 403.732 69.173 403.732 65.213 Z" style="fill: url(#color-0-6);"></path>
      <path d="M 439.792 99.593 L 440.512 99.233 L 441.592 101.333 C 441.232 101.653 440.762 102.053 440.182 102.533 C 439.602 103.013 438.512 103.663 436.912 104.483 C 435.312 105.303 433.872 105.713 432.592 105.713 C 430.112 105.713 428.672 104.593 428.272 102.353 C 425.712 104.593 423.402 105.713 421.342 105.713 C 419.282 105.713 417.542 104.913 416.122 103.313 C 414.702 101.713 413.992 99.193 413.992 95.753 C 413.992 90.393 415.092 86.163 417.292 83.063 C 419.492 79.963 422.152 78.413 425.272 78.413 C 427.512 78.413 429.672 78.993 431.752 80.153 C 431.832 80.073 432.052 79.553 432.412 78.593 C 434.292 78.593 436.812 79.153 439.972 80.273 C 438.972 83.593 438.172 87.063 437.572 90.683 C 436.972 94.303 436.672 96.883 436.672 98.423 C 436.672 99.963 436.832 100.733 437.152 100.733 C 437.392 100.733 438.272 100.353 439.792 99.593 Z M 424.912 100.613 C 425.872 100.613 426.952 100.233 428.152 99.473 C 428.432 93.833 429.372 88.253 430.972 82.733 C 429.772 82.213 428.752 81.953 427.912 81.953 C 426.472 81.953 425.242 83.363 424.222 86.183 C 423.202 89.003 422.692 92.113 422.692 95.513 C 422.692 98.913 423.432 100.613 424.912 100.613 Z" style="fill: url(#color-0-7);"></path>
      <path d="M 460.372 91.373 L 456.292 86.813 C 456.452 85.093 456.872 83.533 457.552 82.133 C 458.232 80.733 458.872 79.753 459.472 79.193 L 460.312 78.413 C 462.032 78.413 463.332 78.873 464.212 79.793 C 465.092 80.713 465.532 81.793 465.532 83.033 C 465.532 86.193 464.752 89.533 463.192 93.053 C 461.632 96.573 459.552 99.563 456.952 102.023 C 454.352 104.483 451.712 105.713 449.032 105.713 C 447.352 105.713 446.062 105.193 445.162 104.153 C 444.262 103.113 443.812 101.743 443.812 100.043 C 443.812 98.343 443.942 96.053 444.202 93.173 C 444.462 90.293 444.592 87.433 444.592 84.593 C 444.592 83.953 444.362 83.193 443.902 82.313 C 443.442 81.433 442.972 80.733 442.492 80.213 L 442.672 79.493 C 444.832 78.773 446.782 78.413 448.522 78.413 C 450.262 78.413 451.562 78.773 452.422 79.493 C 453.282 80.213 453.712 81.693 453.712 83.933 C 453.712 85.133 453.352 87.583 452.632 91.283 C 451.912 94.983 451.552 97.233 451.552 98.033 C 451.552 99.633 451.872 100.433 452.512 100.433 C 454.032 100.433 455.702 99.303 457.522 97.043 C 459.342 94.783 460.292 92.893 460.372 91.373 Z" style="fill: url(#color-0-8);"></path>
      <path d="M 479.332 78.413 L 481.492 78.533 C 482.172 78.173 482.932 77.993 483.772 77.993 C 486.932 77.993 488.512 80.973 488.512 86.933 C 490.152 86.853 491.812 86.633 493.492 86.273 L 494.452 86.033 L 494.812 88.373 C 493.492 88.933 491.712 89.433 489.472 89.873 L 488.272 90.113 C 487.512 94.313 485.972 97.963 483.652 101.063 C 481.332 104.163 478.352 105.713 474.712 105.713 C 471.952 105.713 469.792 104.743 468.232 102.803 C 466.672 100.863 465.892 98.153 465.892 94.673 C 465.892 90.233 467.082 86.413 469.462 83.213 C 471.842 80.013 475.132 78.413 479.332 78.413 Z M 479.632 82.073 L 479.932 81.473 C 479.772 81.393 479.572 81.353 479.332 81.353 C 479.092 81.353 478.912 81.393 478.792 81.473 C 477.792 82.113 476.852 83.613 475.972 85.973 C 475.092 88.333 474.652 91.033 474.652 94.073 C 474.652 98.393 475.752 100.553 477.952 100.553 C 479.632 100.553 481.142 99.473 482.482 97.313 C 483.822 95.153 484.752 92.873 485.272 90.473 C 480.992 90.473 478.852 88.873 478.852 85.673 C 478.852 84.393 479.112 83.193 479.632 82.073 Z" style="fill: url(#color-0-9);"></path>
      <path d="M 492.052 105.173 L 491.632 105.173 C 491.552 104.853 491.512 104.123 491.512 102.983 C 491.512 101.843 492.052 98.773 493.132 93.773 C 494.212 88.773 494.752 85.913 494.752 85.193 C 494.752 83.953 494.192 82.593 493.072 81.113 L 492.532 80.393 L 492.592 79.613 C 494.752 79.013 498.212 78.713 502.972 78.713 C 503.452 79.753 503.692 81.213 503.692 83.093 C 504.132 82.373 505.052 81.413 506.452 80.213 C 507.852 79.013 509.292 78.413 510.772 78.413 C 512.932 78.413 514.012 80.293 514.012 84.053 C 513.812 84.293 513.542 84.603 513.202 84.983 C 512.862 85.363 512.182 85.893 511.162 86.573 C 510.142 87.253 509.152 87.673 508.192 87.833 C 508.152 87.833 507.812 87.293 507.172 86.213 C 506.532 85.133 506.052 84.593 505.732 84.593 C 504.732 84.953 503.852 85.553 503.092 86.393 C 501.252 94.673 500.332 100.033 500.332 102.473 C 500.332 103.353 500.352 103.973 500.392 104.333 C 498.992 104.893 496.212 105.173 492.052 105.173 Z" style="fill: url(#color-0-10);"></path>
    </g>
    <g transform="matrix(0.624153, 0, -0.147283, 0.624153, 111.921562, 118.799782)">
      <bx:title>it</bx:title>
      <path d="M 550.828 99.593 L 551.548 99.233 L 552.568 101.333 C 552.208 101.653 551.728 102.053 551.128 102.533 C 550.528 103.013 549.408 103.663 547.768 104.483 C 546.128 105.303 544.608 105.713 543.208 105.713 C 541.808 105.713 540.708 105.283 539.908 104.423 C 539.108 103.563 538.708 102.403 538.708 100.943 C 538.708 99.483 539.208 96.883 540.208 93.143 C 541.208 89.403 541.833 87.021 542.198 85.962 C 543.389 82.506 543.112 80.776 543.112 80.776 L 543.112 79.861 C 543.112 79.861 545.228 78.713 549.988 78.713 C 550.508 79.313 550.768 80.453 550.768 82.133 C 550.768 83.813 550.228 86.703 549.148 90.803 C 548.068 94.903 547.528 97.583 547.528 98.843 C 547.528 100.103 547.708 100.733 548.068 100.733 C 548.308 100.733 549.228 100.353 550.828 99.593 Z M 543.928 74.143 C 543.128 73.363 542.728 72.313 542.728 70.993 C 542.728 69.673 543.278 68.513 544.378 67.513 C 545.478 66.513 546.748 66.013 548.188 66.013 C 549.628 66.013 550.748 66.413 551.548 67.213 C 552.348 68.013 552.748 69.063 552.748 70.363 C 552.748 71.663 552.178 72.813 551.038 73.813 C 549.898 74.813 548.628 75.313 547.228 75.313 C 545.828 75.313 544.728 74.923 543.928 74.143 Z" style="fill: url(#color-0-4);"></path>
      <path d="M 567.628 79.133 L 573.448 79.133 C 573.368 80.133 573.028 81.293 572.428 82.613 C 570.908 82.453 569.468 82.373 568.108 82.373 L 567.028 82.373 C 565.188 91.293 564.268 96.853 564.268 99.053 C 564.268 100.213 564.518 100.793 565.018 100.793 C 565.518 100.793 566.848 100.293 569.008 99.293 L 570.088 101.273 C 566.528 104.233 563.228 105.713 560.188 105.713 C 558.788 105.713 557.638 105.273 556.738 104.393 C 555.838 103.513 555.388 102.343 555.388 100.883 C 555.388 99.423 555.558 97.773 555.898 95.933 C 556.238 94.093 556.708 91.843 557.308 89.183 C 557.908 86.523 558.348 84.373 558.628 82.733 C 557.148 82.853 556.048 82.973 555.328 83.093 C 555.248 82.613 555.208 81.963 555.208 81.143 C 555.208 80.323 555.268 79.653 555.388 79.133 L 559.168 79.133 C 559.488 76.973 559.648 74.933 559.648 73.013 L 559.588 71.153 L 559.588 70.973 C 562.708 69.893 565.648 69.353 568.408 69.353 C 568.568 70.153 568.648 71.153 568.648 72.353 C 568.648 73.553 568.308 75.813 567.628 79.133 Z" style="fill: url(#color-0-5);"></path>
    </g>
    <path d="M 347.894 154.647 C 351.489 154.647 353.288 155.633 353.288 157.6 C 353.288 158.854 352.688 161.113 351.49 164.379 C 350.292 167.647 349.293 169.98 348.494 171.383 C 347.695 172.784 346.909 173.486 346.134 173.486 C 345.36 173.486 344.437 173.106 343.363 172.345 C 342.289 171.584 341.197 170.749 340.086 169.838 C 338.974 168.929 337.557 168.056 335.835 167.22 C 334.112 166.386 332.413 165.909 330.741 165.789 C 328.244 176.469 326.852 182.375 326.566 183.508 C 326.278 184.64 325.847 185.79 325.273 186.954 C 324.698 188.118 324.011 189.072 323.214 189.817 C 322.413 190.563 321.596 191.175 320.76 191.651 C 319.923 192.13 318.905 192.487 317.707 192.725 C 312.04 193.77 306.546 193.516 301.228 191.965 C 298.257 191.1 295.884 190.034 294.112 188.767 C 292.339 187.499 291.454 186.268 291.454 185.075 C 291.528 184.389 291.796 183.844 292.259 183.441 C 292.721 183.039 293.264 182.837 293.888 182.837 C 296.185 182.837 297.876 182.398 298.963 181.517 C 300.048 180.637 301.079 179.012 302.053 176.64 C 303.027 174.269 303.944 171.62 304.805 168.697 C 305.666 165.774 306.459 163.088 307.184 160.642 C 307.908 158.197 308.743 155.706 309.694 153.17 C 311.765 147.712 314.412 144.059 317.633 142.208 C 320.853 140.359 325.735 139.434 332.277 139.434 C 336.172 139.434 338.12 140.209 338.12 141.76 C 338.12 142.357 337.882 143.207 337.408 144.31 C 335.535 148.517 333.811 153.664 332.24 159.748 C 334.361 158.406 336.84 157.22 339.675 156.19 C 342.507 155.162 345.248 154.647 347.894 154.647 Z M 359.318 145.34 C 355.697 141.552 351.284 138.486 346.078 136.144 C 340.872 133.804 335.622 132.632 330.329 132.632 C 327.157 132.632 323.338 133.132 318.869 134.131 C 314.399 135.131 311.091 136.204 308.944 137.352 C 306.797 138.501 305.386 139.075 304.711 139.075 C 303.887 139.075 303.475 138.605 303.475 137.667 C 303.475 136.728 304.162 135.587 305.536 134.242 C 306.91 132.902 308.912 131.514 311.547 130.081 C 314.181 128.649 317.158 127.307 320.48 126.054 C 328.069 123.251 336.384 121.848 345.424 121.848 C 351.315 121.848 356.246 122.148 360.217 122.743 C 367.583 123.788 371.266 125.457 371.266 127.754 C 371.191 128.977 370.691 131.006 369.768 133.84 C 368.843 136.675 367.745 139.382 366.472 141.962 C 365.199 144.543 364.149 145.981 363.326 146.279 C 362.8 146.459 362.207 146.548 361.546 146.548 C 360.884 146.548 360.141 146.147 359.318 145.34 Z" style="fill: url(#gradient-0);">
      <bx:title>1F</bx:title>
    </path>
    <g transform="matrix(1, 0, 0, 1, -0.445689, 0.288457)" style="">
      <bx:title>2F</bx:title>
      <path d="M 441.157 157.64 C 440.007 156.362 438.606 155.327 436.953 154.538 C 435.302 153.748 433.634 153.353 431.954 153.353 C 430.948 153.353 429.735 153.522 428.316 153.859 C 426.898 154.196 425.847 154.559 425.165 154.945 C 424.484 155.333 424.037 155.526 423.822 155.526 C 423.56 155.526 423.43 155.368 423.43 155.051 C 423.43 154.735 423.647 154.349 424.084 153.896 C 424.519 153.444 425.156 152.976 425.992 152.493 C 426.829 152.01 427.773 151.557 428.827 151.134 C 431.237 150.188 433.876 149.715 436.746 149.715 C 438.616 149.715 440.182 149.815 441.443 150.017 C 443.781 150.369 444.949 150.933 444.949 151.707 C 444.925 152.12 444.767 152.805 444.474 153.761 C 444.181 154.716 443.831 155.63 443.428 156.5 C 443.023 157.37 442.691 157.856 442.43 157.956 C 442.261 158.016 442.074 158.047 441.864 158.047 C 441.654 158.047 441.418 157.911 441.157 157.64 Z" style="transform-box: fill-box; transform-origin: 50% 50%; fill: url(#color-0-1);" transform="matrix(0.992973, -0.118338, 0.118338, 0.992973, 0.000001, -0.000002)"></path>
      <path d="M 436.897 163.089 C 438.437 163.089 439.211 163.407 439.211 164.04 C 439.211 164.445 438.953 165.172 438.437 166.225 C 437.929 167.277 437.502 168.029 437.155 168.481 C 436.817 168.933 436.478 169.158 436.149 169.158 C 435.82 169.158 435.419 169.036 434.957 168.791 C 434.503 168.546 434.031 168.276 433.559 167.983 C 433.088 167.69 432.482 167.409 431.744 167.14 C 431.005 166.871 430.284 166.718 429.563 166.679 L 430.204 164.732 C 431.112 164.301 432.171 163.918 433.381 163.586 C 434.601 163.255 435.766 163.089 436.897 163.089 Z" style="fill: url(#color-0-2);"></path>
      <path d="M 431.686 166.997 C 431.381 167.974 431.631 167.109 430.643 170.165 C 428.905 175.763 430.387 171.151 428.22 178.823 C 428.22 178.823 427.518 180.858 427.228 181.484 C 426.94 182.104 426.685 182.767 426.222 183.27 C 425.757 183.775 425.163 184.192 424.517 184.424 C 423.922 184.638 423.216 184.639 422.584 184.65 C 421.776 184.664 420.571 184.504 420.571 184.504 C 420.571 184.504 418.582 184.096 417.789 183.521 C 417.07 183 416.254 182.011 416.254 181.491 C 416.307 181.193 416.519 181.04 416.746 180.951 C 417.157 180.789 417.334 181.025 418.068 181.058 C 418.774 181.09 419.415 180.958 420.171 180.575 C 420.927 180.191 421.857 178.499 421.857 178.499 C 421.857 178.499 423.238 174.959 423.926 172.888 C 425.119 169.298 425.8 166.373 427.512 162.12 C 427.652 161.773 428.304 159.988 429.605 158.492 C 430.009 158.028 430.235 157.683 430.998 157.335 C 431.924 156.913 432.224 156.945 432.361 156.918 C 433.5 156.699 435.78 156.749 435.78 157.562 C 435.78 157.875 435.614 158.32 435.284 158.899 C 433.98 161.106 432.781 163.805 431.686 166.997 Z" style="fill: url(#color-0-3);"></path>
    </g>
  </g>
</svg>