<?xml version="1.0" encoding="utf-8"?>
<svg xmlns="http://www.w3.org/2000/svg" viewBox="219.0043 148.8402 79.812 71.5076" width="79.812px" height="71.5076px">
  <path d="M 322.142 283.405 C 325.737 283.405 327.536 284.391 327.536 286.358 C 327.536 287.612 326.936 289.871 325.738 293.137 C 324.54 296.405 323.541 298.738 322.742 300.141 C 321.943 301.542 321.157 302.244 320.382 302.244 C 319.608 302.244 318.685 301.864 317.611 301.103 C 316.537 300.342 315.445 299.507 314.334 298.596 C 313.222 297.687 311.805 296.814 310.083 295.978 C 308.36 295.144 306.661 294.667 304.989 294.547 C 302.492 305.227 301.1 311.133 300.814 312.266 C 300.526 313.398 300.095 314.548 299.521 315.712 C 298.946 316.876 298.259 317.83 297.462 318.575 C 296.661 319.321 295.844 319.933 295.008 320.409 C 294.171 320.888 293.153 321.245 291.955 321.483 C 286.288 322.528 280.794 322.274 275.476 320.723 C 272.505 319.858 270.132 318.792 268.36 317.525 C 266.587 316.257 265.702 315.026 265.702 313.833 C 265.776 313.147 266.044 312.602 266.507 312.199 C 266.969 311.797 267.512 311.595 268.136 311.595 C 270.433 311.595 272.124 311.156 273.211 310.275 C 274.296 309.395 275.327 307.77 276.301 305.398 C 277.275 303.027 278.192 300.378 279.053 297.455 C 279.914 294.532 280.707 291.846 281.432 289.4 C 282.156 286.955 282.991 284.464 283.942 281.928 C 286.013 276.47 288.66 272.817 291.881 270.966 C 295.101 269.117 299.983 268.192 306.525 268.192 C 310.42 268.192 312.368 268.967 312.368 270.518 C 312.368 271.115 312.13 271.965 311.656 273.068 C 309.783 277.275 308.059 282.422 306.488 288.506 C 308.609 287.164 311.088 285.978 313.923 284.948 C 316.755 283.92 319.496 283.405 322.142 283.405 Z M 333.566 274.098 C 329.945 270.31 325.532 267.244 320.326 264.902 C 315.12 262.562 309.87 261.39 304.577 261.39 C 301.405 261.39 297.586 261.89 293.117 262.889 C 288.647 263.889 285.339 264.962 283.192 266.11 C 281.045 267.259 279.634 267.833 278.959 267.833 C 278.135 267.833 277.723 267.363 277.723 266.425 C 277.723 265.486 278.41 264.345 279.784 263 C 281.158 261.66 283.16 260.272 285.795 258.839 C 288.429 257.407 291.406 256.065 294.728 254.812 C 302.317 252.009 310.632 250.606 319.672 250.606 C 325.563 250.606 330.494 250.906 334.465 251.501 C 341.831 252.546 345.514 254.215 345.514 256.512 C 345.439 257.735 344.939 259.764 344.016 262.598 C 343.091 265.433 341.993 268.14 340.72 270.72 C 339.447 273.301 338.397 274.739 337.574 275.037 C 337.048 275.217 336.455 275.306 335.794 275.306 C 335.132 275.306 334.389 274.905 333.566 274.098 Z" style="fill: currentColor;" transform="matrix(1, 0, 0, 1, -46.697715759277344, -101.7657699584961)">
    <title>1F</title>
  </path>
</svg>