<svg xmlns="http://www.w3.org/2000/svg" viewBox="0 0 149.245 64.892">
  <g transform="matrix(1.079725, 0, 0, 1.143351, -108.097115, -196.589157)" style="">
    <path d="M 214.774 201.161 C 214.59 200.996 213.703 201.122 213.703 201.122 C 213.703 201.122 213.314 201.198 212.986 201.342 C 212.616 201.504 212.388 201.707 212.388 201.707 C 212.388 201.707 212.097 201.856 211.55 202.631 C 211.003 203.406 210.643 204.467 210.439 205.761 C 210.234 207.055 210.019 208.799 209.793 210.992 C 209.564 213.185 209.413 215.334 209.071 217.496 C 208.994 217.984 208.986 218.7 208.539 219.313 C 208.092 219.926 208.506 220.37 208.224 220.766 C 208.224 220.766 208.174 220.701 208.009 220.839 C 207.976 220.867 208.104 220.7 208.123 220.743 C 208.169 220.84 208.067 221.105 208.144 221.148 C 208.972 221.614 209.349 222.198 210.146 222.198 C 210.942 222.198 211.423 221.957 211.901 221.409 C 212.381 220.86 212.757 219.733 213.026 218.028 C 213.171 217.114 213.478 214.3 213.672 212.431 C 213.844 210.779 213.986 209.119 214.161 207.467 C 214.292 206.207 214.668 203.714 214.668 203.714 L 214.913 202.058 C 214.913 202.058 215.116 201.467 214.774 201.161 Z" style="fill: currentColor;"></path>
    <path d="M 218.883 200.419 C 217.44 199.669 217.182 199.673 216.256 199.495 C 214.878 199.23 213.277 199.13 212.003 199.301 C 211.239 199.403 210.338 199.674 209.296 200.114 C 208.255 200.554 207.498 200.981 207.022 201.389 C 206.545 201.801 206.225 202.016 206.064 202.038 C 205.863 202.064 205.749 201.938 205.717 201.659 C 205.684 201.381 205.808 201.019 206.092 200.578 C 206.377 200.135 206.81 199.658 207.394 199.148 C 207.977 198.638 208.647 198.144 209.403 197.664 C 211.131 196.588 213.082 195.903 215.258 195.613 C 216.675 195.422 217.872 195.353 218.848 195.402 C 220.656 195.475 221.601 195.852 221.681 196.535 C 221.705 196.898 221.6 197.764 221.424 198.369 C 221.17 199.237 220.436 200.732 220.247 200.847 C 220.128 200.916 220.148 200.976 219.829 200.984 C 219.509 200.991 219.15 200.559 218.883 200.419 Z" style="transform-origin: 213.121px 206.68px; fill: currentColor;" transform="matrix(0.996079, -0.088472, 0.088472, 0.996079, -0.000001, -0.000001)"></path>
    <path d="M 217.431 206.425 C 218.342 206.425 218.798 206.741 218.798 207.37 C 218.798 207.771 218.645 208.494 218.342 209.538 C 218.038 210.583 217.994 210.513 217.882 210.737 C 217.769 210.962 217.34 211.5 216.97 211.525 C 216.599 211.55 216.017 211.283 215.684 211.116 C 215.269 210.907 214.815 210.714 214.378 210.447 C 213.942 210.18 213.513 210.027 213.088 209.989 C 212.456 213.404 213.866 206.111 213.467 208.057 C 214.004 207.627 214.633 207.249 215.35 206.919 C 216.068 206.591 216.76 206.425 217.431 206.425 Z" style="transform-origin: 213.245px 207.371px; fill: currentColor;" transform="matrix(0.994689, -0.10293, 0.10293, 0.994689, 0, 0)"></path>
    <g id="group-3" transform="matrix(-0.668087, 0, 0, 1, 107.454636, 184.5009)">
      <path d="M -156.65 34.254 C -156.65 33.313 -152.37 31.889 -152.13 32.971 C -151.9 34.053 -151.52 34.83 -151.06 34.872 C -150.03 34.968 -148.69 34.028 -148.69 34.028 L -148.08 35.218 C -148.85 35.83 -149.78 36.397 -150.88 36.918 C -151.98 37.439 -152.92 37.7 -153.7 37.7 C -154.49 37.7 -155.13 37.439 -155.64 36.918 C -156.15 36.397 -156.65 35.195 -156.65 34.254 Z" style="fill: currentColor;"></path>
    </g>
  </g>
  <g id="svgGroup" transform="matrix(1, 0, 0, 1, 47.168045, 30.507418)">
    <path d="M 3.564 2.556 L 3.348 0.972 Q 6.156 0 8.604 0 Q 8.964 0.504 8.964 1.764 Q 8.964 4.644 7.146 12.906 Q 5.328 21.168 5.328 22.518 Q 5.328 23.868 5.652 23.868 L 8.172 22.968 L 8.82 24.228 Q 7.596 25.2 5.85 26.028 Q 4.104 26.856 2.862 26.856 Q 1.62 26.856 0.81 26.028 Q 0 25.2 0 23.706 Q 0 22.212 1.782 14.166 Q 3.564 6.12 3.564 2.556 Z" id="0" style="fill: currentColor;"></path>
    <path d="M 25.2 23.184 L 25.632 22.968 L 26.28 24.228 Q 25.956 24.516 25.434 24.948 Q 24.912 25.38 23.472 26.118 Q 22.032 26.856 20.88 26.856 Q 18.648 26.856 18.288 24.84 Q 15.984 26.856 14.13 26.856 Q 12.276 26.856 10.998 25.416 Q 9.72 23.976 9.72 20.88 Q 9.72 16.056 11.7 13.266 Q 13.68 10.476 16.488 10.476 Q 18.504 10.476 20.376 11.52 Q 20.448 11.448 20.772 10.584 Q 22.464 10.584 25.308 11.592 Q 24.408 14.58 23.868 17.838 Q 23.328 21.096 23.328 22.482 Q 23.328 23.868 23.616 23.868 Q 23.832 23.868 25.2 23.184 Z M 16.272 23.796 Q 17.136 23.796 18.216 23.112 Q 18.468 18.036 19.908 13.068 Q 18.828 12.6 18.072 12.6 Q 16.776 12.6 15.858 15.138 Q 14.94 17.676 14.94 20.736 Q 14.94 23.796 16.272 23.796 Z" id="1" style="fill: currentColor;"></path>
    <path d="M 37.548 18.252 L 35.1 15.516 Q 35.244 13.968 35.856 12.708 Q 36.468 11.448 37.008 10.944 L 37.512 10.476 Q 39.06 10.476 39.852 11.304 Q 40.644 12.132 40.644 13.248 Q 40.644 16.092 39.24 19.26 Q 37.836 22.428 35.496 24.642 Q 33.156 26.856 30.744 26.856 Q 29.232 26.856 28.422 25.92 Q 27.612 24.984 27.612 23.454 Q 27.612 21.924 27.846 19.332 Q 28.08 16.74 28.08 14.184 Q 28.08 13.608 27.666 12.816 Q 27.252 12.024 26.82 11.556 L 26.928 11.124 Q 28.872 10.476 30.438 10.476 Q 32.004 10.476 32.778 11.124 Q 33.552 11.772 33.552 13.788 Q 33.552 14.868 32.904 18.198 Q 32.256 21.528 32.256 22.248 Q 32.256 23.688 32.832 23.688 Q 34.2 23.688 35.838 21.654 Q 37.476 19.62 37.548 18.252 Z" id="2" style="fill: currentColor;"></path>
    <path d="M 48.924 10.476 L 50.22 10.548 Q 50.832 10.224 51.588 10.224 Q 54.432 10.224 54.432 15.588 Q 55.908 15.516 57.42 15.192 L 57.996 15.048 L 58.212 16.452 Q 57.024 16.956 55.008 17.352 L 54.288 17.496 Q 53.604 21.276 51.516 24.066 Q 49.428 26.856 46.152 26.856 Q 43.668 26.856 42.264 25.11 Q 40.86 23.364 40.86 20.232 Q 40.86 16.236 43.002 13.356 Q 45.144 10.476 48.924 10.476 Z M 49.104 12.672 L 49.284 12.312 Q 49.14 12.24 48.924 12.24 Q 48.708 12.24 48.6 12.312 Q 47.7 12.888 46.908 15.012 Q 46.116 17.136 46.116 19.872 Q 46.116 23.76 48.096 23.76 Q 49.608 23.76 50.814 21.816 Q 52.02 19.872 52.488 17.712 Q 48.636 17.712 48.636 14.832 Q 48.636 13.68 49.104 12.672 Z" id="3" style="fill: currentColor;"></path>
    <path d="M 56.556 26.532 L 56.304 26.532 Q 56.232 26.244 56.232 25.218 Q 56.232 24.192 57.204 19.692 Q 58.176 15.192 58.176 14.544 Q 58.176 13.428 57.168 12.096 L 56.844 11.664 L 56.88 11.196 Q 58.824 10.656 63.108 10.656 Q 63.54 11.592 63.54 13.284 Q 63.936 12.636 65.196 11.556 Q 66.456 10.476 67.788 10.476 Q 69.732 10.476 69.732 13.86 Q 69.552 14.076 69.246 14.418 Q 68.94 14.76 68.022 15.372 Q 67.104 15.984 66.24 16.128 Q 66.204 16.128 65.628 15.156 Q 65.052 14.184 64.764 14.184 Q 63.864 14.508 63.18 15.264 Q 61.524 22.716 61.524 24.912 Q 61.524 25.704 61.56 26.028 Q 60.3 26.532 56.556 26.532 Z" id="4" style="fill: currentColor;"></path>
  </g>
  <g id="group-1" transform="matrix(1, 0, 0, 1, 35.591095, -65.838226)">
    <path d="M 100.082 119.783 L 100.514 119.567 L 101.126 120.827 C 100.91 121.019 100.622 121.259 100.262 121.547 C 99.902 121.835 99.23 122.225 98.246 122.717 C 97.262 123.209 96.35 123.455 95.51 123.455 C 94.67 123.455 94.01 123.197 93.53 122.681 C 93.05 122.165 92.81 121.469 92.81 120.593 C 92.81 119.717 93.11 118.157 93.71 115.913 C 94.31 113.669 94.61 112.211 94.61 111.539 C 94.61 110.531 94.298 109.583 93.674 108.695 L 93.35 108.263 L 93.386 107.795 C 94.658 107.435 96.722 107.255 99.578 107.255 C 99.89 107.615 100.046 108.299 100.046 109.307 C 100.046 110.315 99.722 112.049 99.074 114.509 C 98.426 116.969 98.102 118.577 98.102 119.333 C 98.102 120.089 98.21 120.467 98.426 120.467 C 98.57 120.467 99.122 120.239 100.082 119.783 Z M 95.942 103.313 C 95.462 102.845 95.222 102.215 95.222 101.423 C 95.222 100.631 95.552 99.935 96.212 99.335 C 96.872 98.735 97.634 98.435 98.498 98.435 C 99.362 98.435 100.034 98.675 100.514 99.155 C 100.994 99.635 101.234 100.265 101.234 101.045 C 101.234 101.825 100.892 102.515 100.208 103.115 C 99.524 103.715 98.762 104.015 97.922 104.015 C 97.082 104.015 96.422 103.781 95.942 103.313 Z" id="path-3" style="fill: currentColor;"></path>
    <path d="M 110.162 107.507 L 113.654 107.507 C 113.606 108.107 113.402 108.803 113.042 109.595 C 112.13 109.499 111.266 109.451 110.45 109.451 L 109.802 109.451 C 108.698 114.803 108.146 118.139 108.146 119.459 C 108.146 120.155 108.296 120.503 108.596 120.503 C 108.896 120.503 109.694 120.203 110.99 119.603 L 111.638 120.791 C 109.502 122.567 107.522 123.455 105.698 123.455 C 104.858 123.455 104.168 123.191 103.628 122.663 C 103.088 122.135 102.818 121.433 102.818 120.557 C 102.818 119.681 102.92 118.691 103.124 117.587 C 103.328 116.483 103.61 115.133 103.97 113.537 C 104.33 111.941 104.594 110.651 104.762 109.667 C 103.874 109.739 103.214 109.811 102.782 109.883 C 102.734 109.595 102.71 109.205 102.71 108.713 C 102.71 108.221 102.746 107.819 102.818 107.507 L 105.086 107.507 C 105.278 106.211 105.374 104.987 105.374 103.835 L 105.338 102.719 L 105.338 102.611 C 107.21 101.963 108.974 101.639 110.63 101.639 C 110.726 102.119 110.774 102.719 110.774 103.439 C 110.774 104.159 110.57 105.515 110.162 107.507 Z" id="path-4" style="fill: currentColor;"></path>
  </g>
  <path d="M 43.092 30.156 C 46.024 30.156 47.489 30.968 47.489 32.586 C 47.489 33.618 47 35.476 46.024 38.161 C 45.043 40.846 44.903 40.667 44.541 41.244 C 44.179 41.821 42.801 43.205 41.608 43.269 C 40.414 43.334 39.9 43.07 37.215 41.069 C 36.062 40.21 33.483 39.417 32.118 39.319 C 30.081 48.102 28.952 52.956 28.717 53.889 C 28.478 54.822 28.13 55.763 27.661 56.723 C 27.194 57.68 26.635 58.463 25.982 59.077 C 25.331 59.687 24.669 60.193 23.986 60.585 C 23.304 60.979 22.474 61.273 21.496 61.467 C 16.879 62.325 15.164 62.118 10.831 60.843 C 8.409 60.131 6.477 59.255 5.033 58.213 C 3.59 57.168 2.868 56.156 2.868 55.173 C 2.929 54.611 3.149 54.162 3.526 53.833 C 3.898 53.503 4.34 53.337 4.852 53.337 C 6.721 53.337 8.099 52.975 8.987 52.252 C 9.867 51.53 10.709 50.19 11.504 48.242 C 12.294 46.291 13.041 44.115 13.745 41.713 C 14.447 39.307 15.093 37.1 15.68 35.088 C 16.273 33.076 16.955 31.027 17.726 28.943 C 19.416 24.454 20.275 22.181 23.502 20.041 C 26.087 18.327 28.038 17.652 33.371 17.652 C 36.542 17.652 38.129 18.289 38.129 19.563 C 38.129 20.053 37.934 20.75 37.55 21.659 C 36.021 25.121 35.118 27.22 33.836 32.224 C 35.914 31.587 35.295 31.741 36.967 31.335 C 39.176 30.798 40.933 30.156 43.092 30.156 Z M 54.283 17.62 C 49.767 15.048 48.903 14.964 45.885 14.142 C 41.396 12.917 36.098 12.059 31.781 12.059 C 29.199 12.059 26.087 12.469 22.443 13.29 C 18.799 14.109 16.106 14.997 14.357 15.937 C 12.61 16.885 11.458 17.354 10.91 17.354 C 10.234 17.354 9.902 16.969 9.902 16.196 C 9.902 15.423 10.462 14.484 11.578 13.384 C 12.7 12.278 14.332 11.137 16.478 9.959 C 18.623 8.783 21.05 7.679 23.758 6.648 C 29.941 4.345 36.715 3.19 44.081 3.19 C 48.881 3.19 52.897 3.435 56.133 3.928 C 62.132 4.787 65.134 6.157 65.134 8.05 C 65.07 9.05 64.383 11.372 63.558 12.956 C 62.371 15.232 59.338 19.037 58.663 19.284 C 58.239 19.428 58.283 19.6 57.214 19.503 C 56.145 19.408 55.12 18.097 54.283 17.62 Z" style="fill: currentColor; transform-origin: 32.622px 32.589px;" transform="matrix(0.994689, -0.10293, 0.10293, 0.994689, 0, 0)"></path>
</svg>